<svg width="210" height="68" viewBox="0 0 210 68" fill="none" xmlns="http://www.w3.org/2000/svg">
<rect width="210" height="68" rx="5" fill="white"/>
<path d="M41.608 34.5031L41.608 34.5031L41.608 34.5101C41.6098 36.2043 42.1103 37.8606 43.0471 39.2723C43.8992 40.5564 45.0781 41.5865 46.4586 42.2589C45.899 43.9316 45.0982 45.5145 44.0808 46.9572L44.0806 46.9571L44.0737 46.9675C43.3103 48.1095 42.561 49.1863 41.7044 49.9862C40.858 50.7765 39.9399 51.2651 38.8364 51.283L38.833 51.283C37.7383 51.3083 37.0114 50.9988 36.1606 50.6365L36.1235 50.6207C35.2429 50.2458 34.2545 49.836 32.7398 49.836C31.2191 49.836 30.2154 50.2164 29.3215 50.5898C29.2602 50.6154 29.1997 50.6409 29.1397 50.6661C28.3341 51.0046 27.6349 51.2984 26.6351 51.34C25.6227 51.3771 24.6848 50.871 23.7709 50.0132C22.8564 49.1548 22.0302 48.0056 21.2391 46.8746C19.705 44.6325 18.3325 41.4583 17.7494 38.1517C17.1653 34.8404 17.3826 31.4581 18.9469 28.7499L18.9469 28.7499L18.9508 28.7429C19.6678 27.4545 20.7063 26.3738 21.9652 25.606C23.2232 24.8388 24.6583 24.4103 26.131 24.3623C27.2264 24.3404 28.3057 24.7109 29.3498 25.1233C29.4823 25.1756 29.6155 25.2291 29.7482 25.2824C30.1243 25.4335 30.4973 25.5833 30.845 25.7027C31.3154 25.8642 31.7969 25.9913 32.2523 25.9913C32.711 25.9913 33.229 25.837 33.74 25.6525C34.0211 25.5511 34.3404 25.4245 34.6686 25.2945C34.9257 25.1925 35.1883 25.0885 35.4423 24.9926C36.6618 24.5322 37.9735 24.1435 39.277 24.2803L39.2952 24.2822L39.3135 24.2828C40.5741 24.3222 41.8081 24.6551 42.9175 25.2548C43.8755 25.7728 44.7179 26.4775 45.3958 27.3254C44.3187 28.0823 43.4208 29.0697 42.7688 30.2185C42.0267 31.526 41.6274 32.9999 41.608 34.5031Z" fill="#000055" stroke="#000055"/>
<path d="M37.0812 20.4376L37.0812 20.4376L37.0757 20.4443C36.4625 21.207 35.6842 21.8207 34.7995 22.239C34.0592 22.589 33.2606 22.7946 32.4463 22.8465C32.4464 22.0391 32.579 21.2361 32.8397 20.4697C33.1522 19.5514 33.6426 18.7036 34.2828 17.975L34.283 17.9748C35.4806 16.6107 37.1061 15.7031 38.884 15.3944C38.8987 17.23 38.2634 19.0184 37.0812 20.4376Z" fill="#000055" stroke="#000055"/>
<path d="M71.9153 46.1357H63.8685L61.9361 51.8416H58.5278L66.1496 30.7311H69.6907L77.3124 51.8416H73.846L71.9153 46.1357ZM64.7019 43.5027H71.0803L67.936 34.2423H67.848L64.7019 43.5027Z" fill="#000055"/>
<path fill-rule="evenodd" clip-rule="evenodd" d="M72.6326 45.1357L74.5633 50.8416H75.8882L68.9885 31.7311H66.8517L59.9521 50.8416H61.219L63.1514 45.1357H72.6326ZM61.9361 51.8416H58.5278L66.1496 30.7311H69.6907L77.3124 51.8416H73.846L71.9153 46.1357H63.8685L61.9361 51.8416ZM63.3061 44.5027L67.1316 33.2423H68.6525L72.4759 44.5027H63.3061ZM71.0803 43.5027L67.936 34.2423H67.848L64.7019 43.5027H71.0803Z" fill="#000055"/>
<path d="M93.7731 44.149C93.7731 48.9319 91.2131 52.0049 87.3499 52.0049C86.3713 52.0561 85.3981 51.8306 84.5416 51.3544C83.6852 50.8782 82.9802 50.1704 82.5073 49.3121H82.4342V56.9355H79.2749V36.4526H82.333V39.0125H82.3911C82.8857 38.1583 83.6026 37.4542 84.4656 36.9751C85.3286 36.4959 86.3053 36.2597 87.2918 36.2915C91.1981 36.2916 93.7731 39.3794 93.7731 44.149ZM90.5258 44.149C90.5258 41.033 88.9154 38.9843 86.4584 38.9843C84.0446 38.9843 82.4209 41.0761 82.4209 44.149C82.4209 47.2502 84.0446 49.3271 86.4584 49.3271C88.9155 49.3271 90.5258 47.2934 90.5258 44.149Z" fill="#000055"/>
<path fill-rule="evenodd" clip-rule="evenodd" d="M87.3238 51.0049H87.3499C88.9937 51.0049 90.3118 50.362 91.2377 49.2356C92.1787 48.0906 92.7731 46.3702 92.7731 44.149C92.7731 41.9364 92.176 40.2163 91.2268 39.0692C90.2925 37.94 88.9594 37.2915 87.2918 37.2915H87.2757L87.2596 37.291C86.4537 37.265 85.6559 37.458 84.951 37.8494C84.4854 38.1079 84.0719 38.4465 83.7283 38.8477C84.4968 38.2932 85.4252 37.9843 86.4584 37.9843C87.9928 37.9843 89.2995 38.6365 90.1993 39.7796C91.0818 40.9009 91.5258 42.4288 91.5258 44.149C91.5258 45.8816 91.0827 47.4136 90.1992 48.5358C89.2981 49.6804 87.9905 50.3271 86.4584 50.3271C85.5164 50.3271 84.6605 50.0716 83.9335 49.606C84.2455 49.9548 84.6148 50.2509 85.0276 50.4804C85.7199 50.8654 86.5066 51.0476 87.2977 51.0062L87.3238 51.0049ZM82.5947 48.3121C81.8179 47.2109 81.4209 45.7629 81.4209 44.149C81.4209 42.5513 81.8164 41.1112 82.5881 40.0125H81.333V37.4526H80.2749V55.9355H81.4342V48.3121H82.5947ZM82.333 39.0125H82.3911C82.6484 38.5681 82.966 38.1643 83.333 37.8116C83.6713 37.4865 84.0516 37.2049 84.4656 36.9751C85.3286 36.4959 86.3053 36.2597 87.2918 36.2915C91.1981 36.2916 93.7731 39.3794 93.7731 44.149C93.7731 48.9319 91.2131 52.0049 87.3499 52.0049C86.3713 52.0561 85.3981 51.8306 84.5416 51.3544C84.1356 51.1286 83.7635 50.8508 83.4342 50.5295C83.0688 50.1732 82.756 49.7634 82.5073 49.3121H82.4342V56.9355H79.2749V36.4526H82.333V39.0125ZM86.4584 38.9843C88.9154 38.9843 90.5258 41.033 90.5258 44.149C90.5258 47.2934 88.9155 49.3271 86.4584 49.3271C84.0446 49.3271 82.4209 47.2502 82.4209 44.149C82.4209 41.0761 84.0446 38.9843 86.4584 38.9843Z" fill="#000055"/>
<path d="M110.712 44.149C110.712 48.9319 108.152 52.0049 104.288 52.0049C103.31 52.056 102.337 51.8306 101.48 51.3544C100.624 50.8782 99.9186 50.1704 99.4458 49.3121H99.3726V56.9355H96.2134V36.4526H99.2714V39.0125H99.3295C99.8241 38.1583 100.541 37.4542 101.404 36.9751C102.267 36.4959 103.244 36.2597 104.23 36.2915C108.137 36.2915 110.712 39.3794 110.712 44.149ZM107.464 44.149C107.464 41.0329 105.854 38.9843 103.397 38.9843C100.983 38.9843 99.3594 41.0761 99.3594 44.149C99.3594 47.2502 100.983 49.327 103.397 49.327C105.854 49.327 107.464 47.2934 107.464 44.149H107.464Z" fill="#000055"/>
<path fill-rule="evenodd" clip-rule="evenodd" d="M104.262 51.0049H104.288C105.932 51.0049 107.25 50.3619 108.176 49.2355C109.117 48.0906 109.712 46.3702 109.712 44.149C109.712 41.9364 109.114 40.2163 108.165 39.0692C107.231 37.94 105.898 37.2915 104.23 37.2915H104.214L104.198 37.291C103.392 37.265 102.594 37.458 101.889 37.8494C101.424 38.1079 101.01 38.4466 100.667 38.8478C101.435 38.2933 102.364 37.9843 103.397 37.9843C104.931 37.9843 106.238 38.6365 107.138 39.7796C107.845 40.6783 108.271 41.8382 108.412 43.149H108.464V44.149C108.464 45.8816 108.021 47.4135 107.138 48.5357C106.237 49.6804 104.929 50.327 103.397 50.327C102.455 50.327 101.599 50.0716 100.872 49.606C101.184 49.9547 101.553 50.2509 101.966 50.4804C102.658 50.8654 103.445 51.0476 104.236 51.0062L104.262 51.0049ZM99.5331 48.3121C98.7564 47.2109 98.3594 45.7629 98.3594 44.149C98.3594 42.5513 98.7549 41.1112 99.5266 40.0125H98.2714V37.4526H97.2134V55.9355H98.3726V48.3121H99.5331ZM99.2714 39.0125H99.3295C99.5868 38.5681 99.9044 38.1642 100.271 37.8116C100.61 37.4865 100.99 37.2049 101.404 36.9751C102.267 36.4959 103.244 36.2597 104.23 36.2915C108.137 36.2915 110.712 39.3794 110.712 44.149C110.712 48.9319 108.152 52.0049 104.288 52.0049C103.31 52.056 102.337 51.8306 101.48 51.3544C101.074 51.1286 100.702 50.8508 100.373 50.5295C100.007 50.1732 99.6944 49.7634 99.4458 49.3121H99.3726V56.9355H96.2134V36.4526H99.2714V39.0125ZM107.464 44.149C107.464 41.0329 105.854 38.9843 103.397 38.9843C100.983 38.9843 99.3594 41.0761 99.3594 44.149C99.3594 47.2502 100.983 49.327 103.397 49.327C105.583 49.327 107.098 47.7178 107.406 45.149C107.444 44.8349 107.464 44.5064 107.464 44.1647C107.464 44.1595 107.464 44.1543 107.464 44.149Z" fill="#000055"/>
<path d="M121.907 45.9611C122.141 48.0546 124.175 49.4291 126.954 49.4291C129.617 49.4291 131.532 48.0545 131.532 46.1669C131.532 44.5283 130.377 43.5472 127.641 42.8748L124.905 42.2157C121.029 41.2794 119.229 39.4665 119.229 36.5247C119.229 32.8823 122.403 30.3805 126.911 30.3805C131.371 30.3805 134.429 32.8823 134.532 36.5247H131.343C131.152 34.418 129.411 33.1463 126.866 33.1463C124.321 33.1463 122.579 34.4329 122.579 36.3056C122.579 37.7981 123.692 38.6763 126.412 39.3486L128.738 39.9197C133.07 40.944 134.869 42.6839 134.869 45.7717C134.869 49.7212 131.723 52.1948 126.72 52.1948C122.038 52.1948 118.877 49.7793 118.673 45.9609L121.907 45.9611Z" fill="#000055"/>
<path fill-rule="evenodd" clip-rule="evenodd" d="M127.641 42.8748C130.377 43.5472 131.532 44.5283 131.532 46.1669C131.532 48.0545 129.617 49.4291 126.954 49.4291C124.175 49.4291 122.141 48.0546 121.907 45.9611L118.673 45.9609C118.691 46.306 118.734 46.6396 118.8 46.9609C119.461 50.1961 122.461 52.1948 126.72 52.1948C131.723 52.1948 134.869 49.7212 134.869 45.7717C134.869 42.6839 133.07 40.944 128.738 39.9197L126.412 39.3486C123.692 38.6763 122.579 37.7981 122.579 36.3056C122.579 34.4329 124.321 33.1463 126.866 33.1463C129.411 33.1463 131.152 34.418 131.343 36.5247H134.532C134.523 36.1808 134.487 35.8471 134.425 35.5247C133.839 32.4322 130.95 30.3805 126.911 30.3805C122.403 30.3805 119.229 32.8823 119.229 36.5247C119.229 39.4665 121.029 41.2794 124.905 42.2157L127.641 42.8748ZM127.88 41.9037C129.299 42.2524 130.451 42.7115 131.259 43.3953C132.123 44.1271 132.532 45.0656 132.532 46.1669C132.532 47.4856 131.852 48.5847 130.823 49.3197C129.807 50.0448 128.447 50.4291 126.954 50.4291C124.251 50.4291 121.828 49.2088 121.103 46.9611L119.824 46.961C120.102 48.095 120.726 49.0219 121.628 49.7181C122.814 50.633 124.543 51.1948 126.72 51.1948C129.069 51.1948 130.866 50.6132 132.052 49.6787C133.213 48.7647 133.869 47.4538 133.869 45.7717C133.869 44.4466 133.495 43.5203 132.737 42.7942C131.934 42.0262 130.605 41.3888 128.508 40.8928L128.5 40.8909L126.173 40.3194C124.774 39.9738 123.645 39.5449 122.854 38.9182C121.998 38.2396 121.579 37.3591 121.579 36.3056C121.579 35.0242 122.188 33.9462 123.175 33.2189C124.14 32.5068 125.436 32.1463 126.866 32.1463C128.297 32.1463 129.595 32.5036 130.586 33.2446C131.355 33.8197 131.9 34.5984 132.169 35.5247H133.404C133.159 34.4542 132.576 33.5521 131.726 32.8639C130.603 31.9546 128.959 31.3805 126.911 31.3805C124.834 31.3805 123.148 31.9569 122.003 32.8689C120.874 33.7681 120.229 35.0209 120.229 36.5247C120.229 37.7694 120.6 38.6915 121.322 39.4165C122.074 40.1718 123.294 40.7977 125.14 41.2437" fill="#000055"/>
<path d="M141.692 32.8091V36.4515H144.619V38.9533H141.692V47.4383C141.692 48.7565 142.278 49.3708 143.565 49.3708C143.912 49.3647 144.259 49.3403 144.604 49.2976V51.7846C144.026 51.8926 143.438 51.9416 142.849 51.9307C139.733 51.9307 138.518 50.7602 138.518 47.7753V38.9533H136.28V36.4515H138.518V32.8091H141.692Z" fill="#000055"/>
<path fill-rule="evenodd" clip-rule="evenodd" d="M143.565 49.3708C142.278 49.3708 141.692 48.7565 141.692 47.4383V38.9533H144.619V36.4515H141.692V32.8091H138.518V36.4515H136.28V38.9533H138.518V47.7753C138.518 50.7602 139.733 51.9307 142.849 51.9307C143.438 51.9416 144.026 51.8926 144.604 51.7846V49.2976C144.272 49.3387 143.939 49.3628 143.604 49.37C143.591 49.3703 143.578 49.3705 143.565 49.3708ZM143.604 50.3702C143.597 50.3703 143.59 50.3705 143.582 50.3706L143.574 50.3708H143.565C142.779 50.3708 141.997 50.1836 141.427 49.5934C140.864 49.0106 140.692 48.2228 140.692 47.4383V37.9533H143.619V37.4515H140.692V33.8091H139.518V37.4515H137.28V37.9533H139.518V47.7753C139.518 49.1659 139.807 49.866 140.208 50.251C140.619 50.6461 141.376 50.9307 142.849 50.9307H142.859L142.868 50.9308C143.114 50.9354 143.36 50.9282 143.604 50.9092V50.3702Z" fill="#000055"/>
<path d="M146.312 44.1479C146.312 39.3053 149.165 36.2622 153.612 36.2622C158.075 36.2622 160.914 39.3052 160.914 44.1479C160.914 49.0039 158.09 52.0336 153.612 52.0336C149.136 52.0336 146.312 49.0039 146.312 44.1479ZM157.694 44.1479C157.694 40.826 156.172 38.8653 153.612 38.8653C151.052 38.8653 149.532 40.8409 149.532 44.1479C149.532 47.4832 151.052 49.4289 153.612 49.4289C156.172 49.4289 157.694 47.4832 157.694 44.1479H157.694Z" fill="#000055"/>
<path fill-rule="evenodd" clip-rule="evenodd" d="M157.694 44.1479H157.694C157.694 44.1354 157.694 44.1229 157.694 44.1104C157.693 43.7754 157.677 43.4544 157.645 43.1479C157.364 40.4361 155.904 38.8653 153.612 38.8653C151.052 38.8653 149.532 40.8409 149.532 44.1479C149.532 47.4832 151.052 49.4289 153.612 49.4289C156.172 49.4289 157.694 47.4832 157.694 44.1479ZM158.694 45.1479H158.65C158.522 46.53 158.117 47.7314 157.403 48.6519C156.496 49.8215 155.172 50.4289 153.612 50.4289C152.052 50.4289 150.728 49.8214 149.821 48.6517C148.941 47.5154 148.532 45.9513 148.532 44.1479C148.532 42.3569 148.942 40.7941 149.82 39.6555C150.724 38.4841 152.047 37.8653 153.612 37.8653C155.175 37.8653 156.498 38.4784 157.404 39.6489C158.284 40.7864 158.694 42.3501 158.694 44.1479V45.1479ZM149.027 39.0697C147.966 40.212 147.312 41.9207 147.312 44.1479C147.312 46.3849 147.961 48.0927 149.017 49.2317C150.066 50.3624 151.609 51.0336 153.612 51.0336C155.616 51.0336 157.16 50.3623 158.209 49.2317C159.265 48.0927 159.914 46.3849 159.914 44.1479C159.914 41.9195 159.263 40.211 158.203 39.0692C157.151 37.9355 155.607 37.2622 153.612 37.2622C151.626 37.2622 150.081 37.935 149.027 39.0697ZM153.612 36.2622C149.165 36.2622 146.312 39.3053 146.312 44.1479C146.312 49.0039 149.136 52.0336 153.612 52.0336C158.09 52.0336 160.914 49.0039 160.914 44.1479C160.914 39.3052 158.075 36.2622 153.612 36.2622Z" fill="#000055"/>
<path d="M163.521 36.4524H166.534V39.0721H166.607C166.811 38.2539 167.29 37.5309 167.965 37.0245C168.639 36.5181 169.467 36.2592 170.309 36.2914C170.673 36.2901 171.037 36.3296 171.392 36.4093V39.3643C170.932 39.2239 170.453 39.1594 169.972 39.1734C169.513 39.1548 169.056 39.2357 168.631 39.4106C168.206 39.5855 167.825 39.8503 167.512 40.1867C167.199 40.5231 166.963 40.9232 166.819 41.3595C166.676 41.7959 166.628 42.2581 166.68 42.7145V51.8437H163.521L163.521 36.4524Z" fill="#000055"/>
<path fill-rule="evenodd" clip-rule="evenodd" d="M166.534 36.4524H163.521L163.521 51.8437H166.68V42.7145C166.628 42.2581 166.676 41.7959 166.819 41.3595C166.963 40.9232 167.199 40.5231 167.512 40.1867C167.825 39.8503 168.206 39.5855 168.631 39.4106C169.056 39.2357 169.513 39.1548 169.972 39.1734C170.112 39.1693 170.252 39.1719 170.392 39.1811C170.731 39.2034 171.066 39.2648 171.392 39.3643V36.4093C171.037 36.3296 170.673 36.2901 170.309 36.2914C169.467 36.2592 168.639 36.5181 167.965 37.0245C167.811 37.1401 167.667 37.2671 167.534 37.4039C167.086 37.8661 166.765 38.4408 166.607 39.0721H166.534V36.4524ZM165.534 37.4524H164.521L164.521 50.8437H165.68V42.7674C165.623 42.1872 165.687 41.6013 165.869 41.0471C165.983 40.7023 166.14 40.3747 166.337 40.0721H165.534V37.4524ZM167.817 38.6942C167.957 38.6167 168.102 38.5471 168.25 38.486C168.798 38.2606 169.386 38.154 169.977 38.1729C170.116 38.1698 170.254 38.1719 170.392 38.1793V37.2919C170.366 37.2914 170.339 37.2913 170.313 37.2914L170.292 37.2914L170.271 37.2906C169.658 37.2672 169.056 37.4556 168.565 37.824C168.254 38.058 167.999 38.3556 167.817 38.6942Z" fill="#000055"/>
<path d="M185.957 47.3221C185.532 50.1162 182.811 52.0336 179.33 52.0336C174.852 52.0336 172.073 49.0337 172.073 44.221C172.073 39.3933 174.867 36.2622 179.197 36.2622C183.455 36.2622 186.133 39.1874 186.133 43.8541V44.9365H175.262V45.1274C175.212 45.6938 175.283 46.2645 175.47 46.8014C175.658 47.3383 175.957 47.8293 176.349 48.2416C176.74 48.6539 177.215 48.9782 177.742 49.1929C178.268 49.4076 178.835 49.5079 179.403 49.487C180.149 49.5569 180.899 49.384 181.539 48.994C182.179 48.6039 182.677 48.0176 182.957 47.3221L185.957 47.3221ZM175.277 42.7285H182.972C183 42.2192 182.923 41.7095 182.745 41.2315C182.567 40.7534 182.293 40.3173 181.938 39.9505C181.584 39.5837 181.157 39.2941 180.685 39.0999C180.214 38.9058 179.707 38.8112 179.197 38.8222C178.682 38.8191 178.172 38.9179 177.696 39.113C177.22 39.3081 176.788 39.5955 176.423 39.9586C176.059 40.3218 175.77 40.7536 175.573 41.229C175.377 41.7044 175.276 42.214 175.277 42.7285V42.7285Z" fill="#000055"/>
<path fill-rule="evenodd" clip-rule="evenodd" d="M175.273 45.9365C175.306 46.2304 175.372 46.5205 175.47 46.8014C175.658 47.3383 175.957 47.8293 176.349 48.2416C176.74 48.6539 177.215 48.9782 177.742 49.1929C178.268 49.4076 178.835 49.5079 179.403 49.487C180.149 49.5569 180.899 49.384 181.539 48.994C182.179 48.6039 182.677 48.0176 182.957 47.3221L185.957 47.3221C185.904 47.6697 185.816 48.0037 185.695 48.3221C184.843 50.5635 182.378 52.0336 179.33 52.0336C174.852 52.0336 172.073 49.0337 172.073 44.221C172.073 39.3933 174.867 36.2622 179.197 36.2622C183.455 36.2622 186.133 39.1874 186.133 43.8541V44.9365H175.262V45.1274C175.242 45.3634 175.242 45.6001 175.262 45.8348C175.265 45.8687 175.269 45.9026 175.273 45.9365ZM174.262 45.0857C174.208 45.7781 174.297 46.4746 174.526 47.1308C174.76 47.8017 175.134 48.4151 175.624 48.9302C176.113 49.4454 176.706 49.8506 177.364 50.1189C178.002 50.379 178.687 50.5047 179.375 50.4882C180.314 50.5624 181.254 50.3387 182.059 49.848C182.683 49.4679 183.202 48.9431 183.573 48.3221L184.6 48.3221C183.803 49.9027 181.9 51.0336 179.33 51.0336C177.323 51.0336 175.792 50.3682 174.755 49.2518C173.711 48.1268 173.073 46.4382 173.073 44.221C173.073 41.9961 173.715 40.2623 174.757 39.0978C175.788 37.9448 177.287 37.2622 179.197 37.2622C181.086 37.2622 182.538 37.9039 183.524 38.9828C184.519 40.0718 185.133 41.7081 185.133 43.8541V43.9365H174.262V45.0857ZM175.405 41.7285C175.321 42.0477 175.278 42.377 175.277 42.7084C175.277 42.7151 175.277 42.7218 175.277 42.7285H182.972C182.98 42.5911 182.98 42.4537 182.972 42.3169C182.961 42.1189 182.934 41.9221 182.892 41.7285C182.855 41.56 182.806 41.3939 182.745 41.2315C182.567 40.7534 182.293 40.3173 181.938 39.9505C181.584 39.5837 181.157 39.2941 180.685 39.0999C180.214 38.9058 179.707 38.8112 179.197 38.8222C178.682 38.8191 178.172 38.9179 177.696 39.113C177.22 39.3081 176.788 39.5955 176.423 39.9586C176.059 40.3218 175.77 40.7536 175.573 41.229C175.506 41.3919 175.45 41.5588 175.405 41.7285ZM179.189 37.8221C178.547 37.8201 177.911 37.9443 177.317 38.1877C176.719 38.4328 176.175 38.794 175.717 39.2503C175.259 39.7067 174.896 40.2493 174.649 40.8467C174.531 41.1322 174.441 41.4274 174.378 41.7285H174.277V42.7072C174.277 42.7152 174.277 42.7231 174.277 42.7311L175.277 42.7298V43.7285H183.918L183.971 42.7841C184.007 42.1372 183.909 41.4898 183.683 40.8826C183.456 40.2754 183.107 39.7214 182.657 39.2555C182.207 38.7897 181.665 38.4218 181.066 38.1752C180.471 37.9303 179.832 37.8102 179.189 37.8221Z" fill="#000055"/>
<path d="M188.905 22.169C188.333 22.169 187.826 22.0693 187.384 21.87C186.95 21.6706 186.586 21.402 186.292 21.064C186.006 20.726 185.785 20.3316 185.629 19.881C185.481 19.4303 185.408 18.9536 185.408 18.451C185.408 17.9223 185.49 17.4413 185.655 17.008C185.819 16.566 186.049 16.1846 186.344 15.864C186.638 15.5433 186.994 15.2963 187.41 15.123C187.826 14.941 188.289 14.85 188.801 14.85C189.347 14.85 189.832 14.954 190.257 15.162C190.681 15.37 191.037 15.656 191.323 16.02C191.609 16.384 191.821 16.8173 191.96 17.32C192.098 17.814 192.15 18.3556 192.116 18.945H186.981C186.989 19.2223 187.041 19.4823 187.137 19.725C187.241 19.959 187.375 20.1626 187.54 20.336C187.704 20.5093 187.895 20.6436 188.112 20.739C188.337 20.8343 188.58 20.882 188.84 20.882C189.68 20.882 190.239 20.557 190.517 19.907H192.038C191.96 20.1843 191.838 20.4616 191.674 20.739C191.509 21.0076 191.297 21.2503 191.037 21.467C190.785 21.675 190.482 21.844 190.127 21.974C189.771 22.104 189.364 22.169 188.905 22.169ZM188.801 16.059C188.584 16.059 188.367 16.0936 188.151 16.163C187.943 16.2323 187.752 16.3406 187.579 16.488C187.414 16.6266 187.275 16.8086 187.163 17.034C187.05 17.2506 186.989 17.5106 186.981 17.814H190.543C190.534 17.5453 190.482 17.3026 190.387 17.086C190.291 16.8606 190.166 16.6743 190.01 16.527C189.854 16.3796 189.672 16.267 189.464 16.189C189.256 16.1023 189.035 16.059 188.801 16.059Z" fill="#000055"/>
<path d="M184.922 16.579C184.662 16.553 184.415 16.54 184.181 16.54C183.938 16.54 183.721 16.5704 183.531 16.631C183.34 16.683 183.18 16.7784 183.05 16.917C182.92 17.047 182.82 17.229 182.751 17.463C182.681 17.697 182.647 17.9874 182.647 18.334V22H181.1V15.006H182.621V16.254C182.811 15.864 183.067 15.5607 183.388 15.344C183.717 15.1187 184.094 15.0017 184.519 14.993C184.579 14.993 184.644 14.9974 184.714 15.006C184.792 15.006 184.861 15.0104 184.922 15.019V16.579Z" fill="#000055"/>
<path d="M176.29 20.908C176.55 20.908 176.789 20.8603 177.005 20.765C177.222 20.661 177.413 20.5136 177.577 20.323C177.742 20.1236 177.868 19.8766 177.954 19.582C178.05 19.2786 178.097 18.9233 178.097 18.516C178.097 18.1173 178.05 17.7663 177.954 17.463C177.868 17.1596 177.742 16.9083 177.577 16.709C177.413 16.5096 177.222 16.3623 177.005 16.267C176.789 16.163 176.55 16.111 176.29 16.111C176.03 16.111 175.792 16.163 175.575 16.267C175.359 16.3623 175.168 16.5096 175.003 16.709C174.839 16.9083 174.709 17.1596 174.613 17.463C174.527 17.7663 174.483 18.1173 174.483 18.516C174.483 18.9233 174.527 19.2786 174.613 19.582C174.709 19.8766 174.839 20.1236 175.003 20.323C175.168 20.5136 175.359 20.661 175.575 20.765C175.792 20.8603 176.03 20.908 176.29 20.908ZM176.29 14.85C176.732 14.85 177.157 14.9236 177.564 15.071C177.972 15.2183 178.331 15.4436 178.643 15.747C178.964 16.0416 179.22 16.4186 179.41 16.878C179.601 17.3373 179.696 17.8833 179.696 18.516C179.696 19.1486 179.601 19.6946 179.41 20.154C179.22 20.6133 178.964 20.9946 178.643 21.298C178.331 21.5926 177.972 21.8136 177.564 21.961C177.157 22.0996 176.732 22.169 176.29 22.169C175.848 22.169 175.424 22.0996 175.016 21.961C174.609 21.8136 174.245 21.5926 173.924 21.298C173.612 20.9946 173.361 20.6133 173.17 20.154C172.98 19.6946 172.884 19.1486 172.884 18.516C172.884 17.8833 172.98 17.3373 173.17 16.878C173.361 16.4186 173.612 16.0416 173.924 15.747C174.245 15.4436 174.609 15.2183 175.016 15.071C175.424 14.9236 175.848 14.85 176.29 14.85Z" fill="#000055"/>
<path d="M169.025 13.16H170.572V15.006H171.976V16.124H170.572V19.933C170.572 20.2884 170.629 20.5267 170.741 20.648C170.854 20.7607 171.075 20.817 171.404 20.817H171.963V22H170.819C170.447 22 170.143 21.974 169.909 21.922C169.675 21.8614 169.493 21.7617 169.363 21.623C169.233 21.4844 169.142 21.298 169.09 21.064C169.047 20.8214 169.025 20.5224 169.025 20.167V16.124H167.985V15.006H169.025V13.16Z" fill="#000055"/>
<path d="M162.688 17.723C162.316 17.645 161.965 17.541 161.635 17.411C161.306 17.2723 161.016 17.0947 160.764 16.878C160.522 16.6613 160.327 16.4057 160.179 16.111C160.041 15.8077 159.971 15.4567 159.971 15.058C159.971 14.616 160.075 14.2303 160.283 13.901C160.491 13.5717 160.764 13.2987 161.102 13.082C161.44 12.8567 161.822 12.6877 162.246 12.575C162.671 12.4623 163.1 12.406 163.533 12.406C164.001 12.406 164.439 12.4623 164.846 12.575C165.254 12.679 165.618 12.848 165.938 13.082C166.259 13.3073 166.528 13.5977 166.744 13.953C166.97 14.2997 167.13 14.72 167.225 15.214H165.626C165.557 14.928 165.449 14.694 165.301 14.512C165.154 14.3213 164.981 14.174 164.781 14.07C164.582 13.9573 164.365 13.8793 164.131 13.836C163.906 13.784 163.676 13.758 163.442 13.758C163.26 13.758 163.061 13.7797 162.844 13.823C162.636 13.8663 162.441 13.94 162.259 14.044C162.086 14.1393 161.939 14.265 161.817 14.421C161.696 14.577 161.635 14.772 161.635 15.006C161.635 15.37 161.765 15.6517 162.025 15.851C162.294 16.0417 162.632 16.176 163.039 16.254L164.196 16.475C164.612 16.553 165.011 16.657 165.392 16.787C165.782 16.9083 166.125 17.0773 166.419 17.294C166.723 17.5107 166.965 17.7793 167.147 18.1C167.329 18.4207 167.42 18.8193 167.42 19.296C167.42 19.7727 167.312 20.193 167.095 20.557C166.879 20.9123 166.593 21.2113 166.237 21.454C165.891 21.688 165.492 21.8657 165.041 21.987C164.599 22.1083 164.144 22.169 163.676 22.169C163.113 22.169 162.597 22.0953 162.129 21.948C161.67 21.8007 161.267 21.5883 160.92 21.311C160.582 21.025 160.309 20.6783 160.101 20.271C159.893 19.8637 159.763 19.4 159.711 18.88H161.336C161.484 19.53 161.761 20.0153 162.168 20.336C162.576 20.6567 163.104 20.817 163.754 20.817C164.032 20.817 164.292 20.7867 164.534 20.726C164.786 20.6653 165.002 20.5743 165.184 20.453C165.366 20.3317 165.509 20.1843 165.613 20.011C165.717 19.829 165.769 19.6253 165.769 19.4C165.769 19.1573 165.709 18.9537 165.587 18.789C165.475 18.6243 165.323 18.4857 165.132 18.373C164.95 18.2603 164.742 18.1737 164.508 18.113C164.283 18.0437 164.058 17.9873 163.832 17.944L162.688 17.723Z" fill="#000055"/>
<path d="M150.574 18.503C150.574 18.9103 150.617 19.2656 150.704 19.569C150.799 19.8636 150.929 20.1106 151.094 20.31C151.258 20.5093 151.449 20.661 151.666 20.765C151.891 20.8603 152.129 20.908 152.381 20.908C152.927 20.908 153.351 20.6956 153.655 20.271C153.958 19.8376 154.11 19.2483 154.11 18.503C154.11 17.7663 153.958 17.1856 153.655 16.761C153.351 16.3276 152.927 16.111 152.381 16.111C152.129 16.111 151.891 16.163 151.666 16.267C151.449 16.3623 151.258 16.5096 151.094 16.709C150.929 16.8996 150.799 17.1466 150.704 17.45C150.617 17.7533 150.574 18.1043 150.574 18.503ZM150.639 15.006V15.942C150.847 15.5953 151.128 15.3266 151.484 15.136C151.839 14.9453 152.251 14.85 152.719 14.85C153.143 14.85 153.538 14.9366 153.902 15.11C154.274 15.2746 154.595 15.5173 154.864 15.838C155.132 16.1586 155.34 16.5443 155.488 16.995C155.644 17.4456 155.722 17.9483 155.722 18.503C155.722 19.0663 155.644 19.5733 155.488 20.024C155.34 20.4746 155.132 20.8603 154.864 21.181C154.595 21.5016 154.274 21.7486 153.902 21.922C153.538 22.0866 153.143 22.169 152.719 22.169C152.251 22.169 151.839 22.0736 151.484 21.883C151.128 21.6923 150.847 21.4236 150.639 21.077V24.275H149.092V15.006H150.639Z" fill="#000055"/>
<path d="M142.547 18.503C142.547 18.9103 142.591 19.2656 142.677 19.569C142.773 19.8636 142.903 20.1106 143.067 20.31C143.232 20.5093 143.423 20.661 143.639 20.765C143.865 20.8603 144.103 20.908 144.354 20.908C144.9 20.908 145.325 20.6956 145.628 20.271C145.932 19.8376 146.083 19.2483 146.083 18.503C146.083 17.7663 145.932 17.1856 145.628 16.761C145.325 16.3276 144.9 16.111 144.354 16.111C144.103 16.111 143.865 16.163 143.639 16.267C143.423 16.3623 143.232 16.5096 143.067 16.709C142.903 16.8996 142.773 17.1466 142.677 17.45C142.591 17.7533 142.547 18.1043 142.547 18.503ZM142.612 15.006V15.942C142.82 15.5953 143.102 15.3266 143.457 15.136C143.813 14.9453 144.224 14.85 144.692 14.85C145.117 14.85 145.511 14.9366 145.875 15.11C146.248 15.2746 146.569 15.5173 146.837 15.838C147.106 16.1586 147.314 16.5443 147.461 16.995C147.617 17.4456 147.695 17.9483 147.695 18.503C147.695 19.0663 147.617 19.5733 147.461 20.024C147.314 20.4746 147.106 20.8603 146.837 21.181C146.569 21.5016 146.248 21.7486 145.875 21.922C145.511 22.0866 145.117 22.169 144.692 22.169C144.224 22.169 143.813 22.0736 143.457 21.883C143.102 21.6923 142.82 21.4236 142.612 21.077V24.275H141.065V15.006H142.612Z" fill="#000055"/>
<path d="M134.789 12.575H136.531L140.067 22H138.26L137.519 19.907H133.697L132.969 22H131.279L134.789 12.575ZM134.178 18.529H137.025L135.595 14.486L134.178 18.529Z" fill="#000055"/>
<path d="M125.822 18.711C125.267 18.763 124.795 18.8236 124.405 18.893C124.015 18.9623 123.694 19.049 123.443 19.153C123.191 19.257 123.005 19.3826 122.884 19.53C122.771 19.6686 122.715 19.8376 122.715 20.037C122.715 20.3403 122.832 20.5786 123.066 20.752C123.3 20.9253 123.612 21.012 124.002 21.012C124.574 21.012 125.02 20.856 125.341 20.544C125.661 20.2233 125.822 19.6946 125.822 18.958V18.711ZM124.353 14.798C124.786 14.798 125.185 14.85 125.549 14.954C125.921 15.058 126.242 15.227 126.511 15.461C126.779 15.695 126.983 16.0026 127.122 16.384C127.269 16.7653 127.338 17.2333 127.33 17.788C127.33 17.8746 127.325 17.9916 127.317 18.139C127.317 18.2776 127.317 18.4293 127.317 18.594C127.317 18.7586 127.312 18.932 127.304 19.114C127.304 19.2873 127.304 19.452 127.304 19.608C127.304 20.05 127.321 20.4876 127.356 20.921C127.39 21.3456 127.442 21.7053 127.512 22H126.095C126.069 21.8526 126.043 21.7096 126.017 21.571C125.999 21.4323 125.982 21.2416 125.965 20.999C125.748 21.389 125.44 21.6836 125.042 21.883C124.643 22.0736 124.184 22.169 123.664 22.169C123.282 22.169 122.931 22.117 122.611 22.013C122.299 21.9176 122.026 21.779 121.792 21.597C121.566 21.415 121.389 21.1983 121.259 20.947C121.137 20.687 121.077 20.3966 121.077 20.076C121.077 19.6426 121.202 19.283 121.454 18.997C121.705 18.711 122.043 18.477 122.468 18.295C122.901 18.113 123.399 17.9743 123.963 17.879C124.535 17.7836 125.141 17.7013 125.783 17.632V17.463C125.783 17.1683 125.744 16.9256 125.666 16.735C125.588 16.5356 125.479 16.3796 125.341 16.267C125.211 16.1456 125.055 16.0633 124.873 16.02C124.691 15.968 124.491 15.942 124.275 15.942C123.876 15.942 123.542 16.046 123.274 16.254C123.005 16.462 122.862 16.7783 122.845 17.203H121.324C121.35 16.8476 121.441 16.5226 121.597 16.228C121.753 15.9333 121.961 15.682 122.221 15.474C122.489 15.2573 122.801 15.0926 123.157 14.98C123.521 14.8586 123.919 14.798 124.353 14.798Z" fill="#000055"/>
<path d="M115.255 15.981C115.454 15.617 115.731 15.3396 116.087 15.149C116.451 14.9496 116.88 14.85 117.374 14.85C117.798 14.85 118.158 14.915 118.453 15.045C118.756 15.175 119.003 15.3613 119.194 15.604C119.384 15.8466 119.523 16.137 119.61 16.475C119.705 16.813 119.753 17.19 119.753 17.606V22H118.206V17.983C118.206 17.749 118.193 17.5193 118.167 17.294C118.141 17.0686 118.08 16.8693 117.985 16.696C117.898 16.514 117.764 16.371 117.582 16.267C117.408 16.163 117.174 16.111 116.88 16.111C116.585 16.111 116.334 16.1673 116.126 16.28C115.918 16.384 115.749 16.5313 115.619 16.722C115.489 16.9126 115.393 17.1423 115.333 17.411C115.281 17.6796 115.255 17.97 115.255 18.282V22H113.708V15.006H115.255V15.981Z" fill="#000055"/>
<path d="M108.711 12.575V14.135H107.164V12.575H108.711ZM108.711 15.006V22H107.164V15.006H108.711Z" fill="#000055"/>
<path d="M96.7863 22H95.2393V15.006H96.7863V15.981C96.9856 15.617 97.2543 15.3396 97.5923 15.149C97.9389 14.9496 98.3463 14.85 98.8143 14.85C99.3603 14.85 99.7936 14.9583 100.114 15.175C100.444 15.3916 100.691 15.695 100.855 16.085C101.159 15.643 101.505 15.3266 101.895 15.136C102.285 14.9453 102.697 14.85 103.13 14.85C103.546 14.85 103.897 14.915 104.183 15.045C104.478 15.175 104.716 15.3613 104.898 15.604C105.08 15.8466 105.21 16.137 105.288 16.475C105.375 16.813 105.418 17.19 105.418 17.606V22H103.871V17.983C103.871 17.749 103.858 17.5193 103.832 17.294C103.815 17.0686 103.763 16.8693 103.676 16.696C103.598 16.514 103.477 16.371 103.312 16.267C103.148 16.163 102.922 16.111 102.636 16.111C102.35 16.111 102.108 16.1673 101.908 16.28C101.718 16.384 101.562 16.5313 101.44 16.722C101.319 16.9126 101.232 17.1423 101.18 17.411C101.128 17.6796 101.102 17.97 101.102 18.282V22H99.5553V17.983C99.5553 17.749 99.5423 17.5193 99.5163 17.294C99.4989 17.0686 99.4469 16.8693 99.3603 16.696C99.2823 16.514 99.1609 16.371 98.9963 16.267C98.8316 16.163 98.6063 16.111 98.3203 16.111C98.0343 16.111 97.7916 16.1673 97.5923 16.28C97.4016 16.384 97.2456 16.5313 97.1243 16.722C97.0029 16.9126 96.9163 17.1423 96.8643 17.411C96.8123 17.6796 96.7863 17.97 96.7863 18.282V22Z" fill="#000055"/>
<path d="M88.1528 20.817L91.8968 16.189H88.4128V15.006H93.8208V16.189L90.0638 20.817H93.9118V22H88.1528V20.817Z" fill="#000055"/>
<path d="M85.2674 21.038C85.068 21.402 84.7907 21.6836 84.4354 21.883C84.0887 22.0736 83.677 22.169 83.2004 22.169C82.7844 22.169 82.429 22.104 82.1344 21.974C81.8397 21.844 81.597 21.6576 81.4064 21.415C81.2157 21.1723 81.077 20.882 80.9904 20.544C80.9037 20.206 80.8604 19.829 80.8604 19.413V15.006H82.4074V19.036C82.4074 19.27 82.4204 19.4996 82.4464 19.725C82.4724 19.9503 82.5287 20.154 82.6154 20.336C82.702 20.5093 82.832 20.648 83.0054 20.752C83.1787 20.856 83.4084 20.908 83.6944 20.908C83.9804 20.908 84.223 20.856 84.4224 20.752C84.6304 20.6393 84.795 20.4876 84.9164 20.297C85.0377 20.1063 85.1244 19.8766 85.1764 19.608C85.237 19.3393 85.2674 19.049 85.2674 18.737V15.006H86.8144V22H85.2674V21.038Z" fill="#000055"/>
<path d="M76.3217 22.169C75.7497 22.169 75.2427 22.0693 74.8007 21.87C74.3674 21.6706 74.0034 21.402 73.7087 21.064C73.4227 20.726 73.2017 20.3316 73.0457 19.881C72.8984 19.4303 72.8247 18.9536 72.8247 18.451C72.8247 17.9223 72.907 17.4413 73.0717 17.008C73.2364 16.566 73.466 16.1846 73.7607 15.864C74.0554 15.5433 74.4107 15.2963 74.8267 15.123C75.2427 14.941 75.7064 14.85 76.2177 14.85C76.7637 14.85 77.249 14.954 77.6737 15.162C78.0984 15.37 78.4537 15.656 78.7397 16.02C79.0257 16.384 79.238 16.8173 79.3767 17.32C79.5154 17.814 79.5674 18.3556 79.5327 18.945H74.3977C74.4064 19.2223 74.4584 19.4823 74.5537 19.725C74.6577 19.959 74.792 20.1626 74.9567 20.336C75.1214 20.5093 75.312 20.6436 75.5287 20.739C75.754 20.8343 75.9967 20.882 76.2567 20.882C77.0974 20.882 77.6564 20.557 77.9337 19.907H79.4547C79.3767 20.1843 79.2554 20.4616 79.0907 20.739C78.926 21.0076 78.7137 21.2503 78.4537 21.467C78.2024 21.675 77.899 21.844 77.5437 21.974C77.1884 22.104 76.781 22.169 76.3217 22.169ZM76.2177 16.059C76.001 16.059 75.7844 16.0936 75.5677 16.163C75.3597 16.2323 75.169 16.3406 74.9957 16.488C74.831 16.6266 74.6924 16.8086 74.5797 17.034C74.467 17.2506 74.4064 17.5106 74.3977 17.814H77.9597C77.951 17.5453 77.899 17.3026 77.8037 17.086C77.7084 16.8606 77.5827 16.6743 77.4267 16.527C77.2707 16.3796 77.0887 16.267 76.8807 16.189C76.6727 16.1023 76.4517 16.059 76.2177 16.059Z" fill="#000055"/>
<path d="M72.3381 16.579C72.0781 16.553 71.8311 16.54 71.5971 16.54C71.3544 16.54 71.1378 16.5704 70.9471 16.631C70.7564 16.683 70.5961 16.7784 70.4661 16.917C70.3361 17.047 70.2364 17.229 70.1671 17.463C70.0978 17.697 70.0631 17.9874 70.0631 18.334V22H68.5161V15.006H70.0371V16.254C70.2278 15.864 70.4834 15.5607 70.8041 15.344C71.1334 15.1187 71.5104 15.0017 71.9351 14.993C71.9958 14.993 72.0608 14.9974 72.1301 15.006C72.2081 15.006 72.2774 15.0104 72.3381 15.019V16.579Z" fill="#000055"/>
<path d="M63.5225 12.575C64.0425 12.575 64.5409 12.6053 65.0175 12.666C65.5029 12.7266 65.9275 12.861 66.2915 13.069C66.6642 13.277 66.9632 13.576 67.1885 13.966C67.4139 14.356 67.5265 14.8803 67.5265 15.539C67.5265 16.137 67.4225 16.6223 67.2145 16.995C67.0065 17.3676 66.7249 17.6623 66.3695 17.879C66.0142 18.0956 65.5939 18.243 65.1085 18.321C64.6232 18.399 64.1032 18.438 63.5485 18.438H62.0665V22H60.4155V12.575H63.5225ZM62.0665 13.901V17.086H63.6005C63.9125 17.086 64.2029 17.0686 64.4715 17.034C64.7402 16.9993 64.9742 16.93 65.1735 16.826C65.3729 16.722 65.5289 16.5703 65.6415 16.371C65.7542 16.163 65.8105 15.89 65.8105 15.552C65.8105 15.1706 65.7455 14.8716 65.6155 14.655C65.4855 14.4296 65.3122 14.265 65.0955 14.161C64.8875 14.0483 64.6449 13.979 64.3675 13.953C64.0902 13.9183 63.8085 13.901 63.5225 13.901H62.0665Z" fill="#000055"/>
</svg>
