<svg width="168" height="42" viewBox="0 0 168 42" fill="none" xmlns="http://www.w3.org/2000/svg">
<path d="M150.7 19.2264H154.11V39.9999H150.7V37.9655C150.241 38.7296 149.621 39.3218 148.837 39.742C148.054 40.1623 147.147 40.3724 146.115 40.3724C145.179 40.3724 144.301 40.1909 143.479 39.828C142.677 39.446 141.98 38.9015 141.388 38.1948C140.796 37.488 140.328 36.638 139.984 35.6446C139.659 34.6513 139.497 33.5339 139.497 32.2922C139.497 31.0697 139.659 29.9618 139.984 28.9685C140.328 27.9752 140.796 27.1251 141.388 26.4184C141.98 25.7116 142.677 25.1767 143.479 24.8138C144.301 24.4317 145.179 24.2407 146.115 24.2407C147.147 24.2407 148.054 24.4508 148.837 24.8711C149.621 25.2913 150.241 25.8835 150.7 26.6476V19.2264ZM150.843 32.2922C150.843 31.4135 150.738 30.6399 150.528 29.9713C150.318 29.3028 150.031 28.7584 149.668 28.3381C149.325 27.8988 148.904 27.574 148.408 27.3639C147.93 27.1347 147.414 27.0201 146.86 27.0201C145.657 27.0201 144.721 27.4976 144.052 28.4527C143.384 29.3887 143.05 30.6686 143.05 32.2922C143.05 33.935 143.384 35.234 144.052 36.1891C144.721 37.1251 145.657 37.5931 146.86 37.5931C147.414 37.5931 147.93 37.488 148.408 37.2779C148.904 37.0486 149.325 36.7144 149.668 36.275C150.031 35.8357 150.318 35.2913 150.528 34.6418C150.738 33.9732 150.843 33.19 150.843 32.2922Z" fill="#000055"/>
<path d="M136.433 19.2264V22.6648H133.023V19.2264H136.433ZM136.433 24.5846V39.9999H133.023V24.5846H136.433Z" fill="#000055"/>
<path d="M122.423 37.5931C122.996 37.5931 123.521 37.488 123.999 37.2779C124.477 37.0486 124.897 36.7239 125.26 36.3037C125.623 35.8643 125.9 35.3199 126.091 34.6704C126.301 34.0019 126.406 33.2187 126.406 32.3209C126.406 31.4422 126.301 30.6686 126.091 30C125.9 29.3314 125.623 28.7775 125.26 28.3381C124.897 27.8988 124.477 27.574 123.999 27.3639C123.521 27.1347 122.996 27.0201 122.423 27.0201C121.85 27.0201 121.325 27.1347 120.847 27.3639C120.37 27.574 119.949 27.8988 119.586 28.3381C119.224 28.7775 118.937 29.3314 118.727 30C118.536 30.6686 118.44 31.4422 118.44 32.3209C118.44 33.2187 118.536 34.0019 118.727 34.6704C118.937 35.3199 119.224 35.8643 119.586 36.3037C119.949 36.7239 120.37 37.0486 120.847 37.2779C121.325 37.488 121.85 37.5931 122.423 37.5931ZM122.423 24.2407C123.397 24.2407 124.333 24.4031 125.231 24.7278C126.129 25.0526 126.922 25.5492 127.609 26.2178C128.316 26.8673 128.88 27.6982 129.3 28.7106C129.72 29.723 129.93 30.9264 129.93 32.3209C129.93 33.7153 129.72 34.9188 129.3 35.9312C128.88 36.9436 128.316 37.7841 127.609 38.4526C126.922 39.1021 126.129 39.5892 125.231 39.9139C124.333 40.2196 123.397 40.3724 122.423 40.3724C121.449 40.3724 120.513 40.2196 119.615 39.9139C118.717 39.5892 117.915 39.1021 117.208 38.4526C116.521 37.7841 115.967 36.9436 115.546 35.9312C115.126 34.9188 114.916 33.7153 114.916 32.3209C114.916 30.9264 115.126 29.723 115.546 28.7106C115.967 27.6982 116.521 26.8673 117.208 26.2178C117.915 25.5492 118.717 25.0526 119.615 24.7278C120.513 24.4031 121.449 24.2407 122.423 24.2407Z" fill="#000055"/>
<path d="M113.844 28.0516C113.271 27.9943 112.726 27.9656 112.211 27.9656C111.676 27.9656 111.198 28.0325 110.778 28.1662C110.358 28.2808 110.004 28.4909 109.718 28.7966C109.431 29.0831 109.212 29.4842 109.059 30C108.906 30.5157 108.83 31.1557 108.83 31.9197V39.9999H105.42V24.5846H108.772V27.3353C109.193 26.4757 109.756 25.8071 110.463 25.3295C111.189 24.8329 112.02 24.575 112.956 24.5559C113.089 24.5559 113.233 24.5655 113.385 24.5846C113.557 24.5846 113.71 24.5941 113.844 24.6132V28.0516Z" fill="#000055"/>
<path d="M97.8723 19.2264H101.282V39.9999H97.8723V37.9655C97.4138 38.7296 96.793 39.3218 96.0098 39.742C95.2267 40.1623 94.3193 40.3724 93.2878 40.3724C92.3518 40.3724 91.4731 40.1909 90.6517 39.828C89.8494 39.446 89.1522 38.9015 88.56 38.1948C87.9679 37.488 87.4999 36.638 87.156 35.6446C86.8313 34.6513 86.6689 33.5339 86.6689 32.2922C86.6689 31.0697 86.8313 29.9618 87.156 28.9685C87.4999 27.9752 87.9679 27.1251 88.56 26.4184C89.1522 25.7116 89.8494 25.1767 90.6517 24.8138C91.4731 24.4317 92.3518 24.2407 93.2878 24.2407C94.3193 24.2407 95.2267 24.4508 96.0098 24.8711C96.793 25.2913 97.4138 25.8835 97.8723 26.6476V19.2264ZM98.0156 32.2922C98.0156 31.4135 97.9105 30.6399 97.7004 29.9713C97.4903 29.3028 97.2037 28.7584 96.8408 28.3381C96.4969 27.8988 96.0767 27.574 95.58 27.3639C95.1025 27.1347 94.5867 27.0201 94.0328 27.0201C92.8294 27.0201 91.8934 27.4976 91.2248 28.4527C90.5562 29.3887 90.2219 30.6686 90.2219 32.2922C90.2219 33.935 90.5562 35.234 91.2248 36.1891C91.8934 37.1251 92.8294 37.5931 94.0328 37.5931C94.5867 37.5931 95.1025 37.488 95.58 37.2779C96.0767 37.0486 96.4969 36.7144 96.8408 36.275C97.2037 35.8357 97.4903 35.2913 97.7004 34.6418C97.9105 33.9732 98.0156 33.19 98.0156 32.2922Z" fill="#000055"/>
<path d="M73.979 26.7335C74.4184 25.9313 75.0297 25.32 75.8128 24.8997C76.6151 24.4604 77.5607 24.2407 78.6495 24.2407C79.5855 24.2407 80.3782 24.384 81.0277 24.6705C81.6963 24.957 82.2407 25.3677 82.6609 25.9026C83.0812 26.4375 83.3868 27.0774 83.5778 27.8224C83.788 28.5673 83.893 29.3983 83.893 30.3152V39.9999H80.4833V31.1461C80.4833 30.6304 80.4546 30.1242 80.3973 29.6275C80.34 29.1308 80.2063 28.6915 79.9962 28.3095C79.8052 27.9083 79.5091 27.5931 79.1079 27.3639C78.7259 27.1347 78.2102 27.0201 77.5607 27.0201C76.9112 27.0201 76.3573 27.1442 75.8988 27.3926C75.4404 27.6218 75.0679 27.9465 74.7813 28.3668C74.4948 28.787 74.2847 29.2932 74.151 29.8854C74.0364 30.4775 73.979 31.1175 73.979 31.8051V39.9999H70.5693V24.5846H73.979V26.7335Z" fill="#000055"/>
<path d="M56.7363 19.2264H60.5758L68.3695 39.9999H64.3867L62.7535 35.3868H54.3295L52.7249 39.9999H49L56.7363 19.2264ZM55.3896 32.3495H61.6647L58.5128 23.4384L55.3896 32.3495Z" fill="#000055"/>
<path d="M165.698 0.574951H167.245V9.99995H165.698V9.07695C165.49 9.42362 165.208 9.69229 164.853 9.88295C164.497 10.0736 164.086 10.169 163.618 10.169C163.193 10.169 162.794 10.0866 162.422 9.92195C162.058 9.74862 161.741 9.50162 161.473 9.18095C161.204 8.86029 160.992 8.47462 160.836 8.02395C160.688 7.57329 160.615 7.06629 160.615 6.50295C160.615 5.94829 160.688 5.44562 160.836 4.99495C160.992 4.54429 161.204 4.15862 161.473 3.83795C161.741 3.51728 162.058 3.27462 162.422 3.10995C162.794 2.93662 163.193 2.84995 163.618 2.84995C164.086 2.84995 164.497 2.94529 164.853 3.13595C165.208 3.32662 165.49 3.59528 165.698 3.94195V0.574951ZM165.763 6.50295C165.763 6.10428 165.715 5.75328 165.62 5.44995C165.524 5.14662 165.394 4.89962 165.23 4.70895C165.074 4.50962 164.883 4.36228 164.658 4.26695C164.441 4.16295 164.207 4.11095 163.956 4.11095C163.41 4.11095 162.985 4.32762 162.682 4.76095C162.378 5.18562 162.227 5.76628 162.227 6.50295C162.227 7.24829 162.378 7.83762 162.682 8.27095C162.985 8.69562 163.41 8.90795 163.956 8.90795C164.207 8.90795 164.441 8.86028 164.658 8.76495C164.883 8.66095 165.074 8.50928 165.23 8.30995C165.394 8.11062 165.524 7.86362 165.62 7.56895C165.715 7.26562 165.763 6.91028 165.763 6.50295Z" fill="#000055"/>
<path d="M159.225 0.574951V2.13495H157.678V0.574951H159.225ZM159.225 3.00595V9.99995H157.678V3.00595H159.225Z" fill="#000055"/>
<path d="M152.868 8.90798C153.128 8.90798 153.367 8.86031 153.583 8.76498C153.8 8.66098 153.991 8.51364 154.155 8.32298C154.32 8.12364 154.446 7.87664 154.532 7.58198C154.628 7.27864 154.675 6.92331 154.675 6.51598C154.675 6.11731 154.628 5.76631 154.532 5.46298C154.446 5.15964 154.32 4.90831 154.155 4.70898C153.991 4.50964 153.8 4.36231 153.583 4.26698C153.367 4.16298 153.128 4.11098 152.868 4.11098C152.608 4.11098 152.37 4.16298 152.153 4.26698C151.937 4.36231 151.746 4.50964 151.581 4.70898C151.417 4.90831 151.287 5.15964 151.191 5.46298C151.105 5.76631 151.061 6.11731 151.061 6.51598C151.061 6.92331 151.105 7.27864 151.191 7.58198C151.287 7.87664 151.417 8.12364 151.581 8.32298C151.746 8.51364 151.937 8.66098 152.153 8.76498C152.37 8.86031 152.608 8.90798 152.868 8.90798ZM152.868 2.84998C153.31 2.84998 153.735 2.92364 154.142 3.07097C154.55 3.21831 154.909 3.44364 155.221 3.74698C155.542 4.04164 155.798 4.41864 155.988 4.87798C156.179 5.33731 156.274 5.88331 156.274 6.51598C156.274 7.14864 156.179 7.69464 155.988 8.15398C155.798 8.61331 155.542 8.99464 155.221 9.29798C154.909 9.59264 154.55 9.81364 154.142 9.96098C153.735 10.0996 153.31 10.169 152.868 10.169C152.426 10.169 152.002 10.0996 151.594 9.96098C151.187 9.81364 150.823 9.59264 150.502 9.29798C150.19 8.99464 149.939 8.61331 149.748 8.15398C149.558 7.69464 149.462 7.14864 149.462 6.51598C149.462 5.88331 149.558 5.33731 149.748 4.87798C149.939 4.41864 150.19 4.04164 150.502 3.74698C150.823 3.44364 151.187 3.21831 151.594 3.07097C152.002 2.92364 152.426 2.84998 152.868 2.84998Z" fill="#000055"/>
<path d="M148.976 4.57892C148.716 4.55292 148.469 4.53992 148.235 4.53992C147.993 4.53992 147.776 4.57025 147.585 4.63092C147.395 4.68292 147.234 4.77825 147.104 4.91692C146.974 5.04692 146.875 5.22892 146.805 5.46292C146.736 5.69692 146.701 5.98725 146.701 6.33392V9.99992H145.154V3.00592H146.675V4.25392C146.866 3.86392 147.122 3.56059 147.442 3.34392C147.772 3.11859 148.149 3.00159 148.573 2.99292C148.634 2.99292 148.699 2.99725 148.768 3.00592C148.846 3.00592 148.916 3.01025 148.976 3.01892V4.57892Z" fill="#000055"/>
<path d="M141.729 0.574951H143.276V9.99995H141.729V9.07695C141.521 9.42362 141.24 9.69229 140.884 9.88295C140.529 10.0736 140.117 10.169 139.649 10.169C139.225 10.169 138.826 10.0866 138.453 9.92195C138.089 9.74862 137.773 9.50162 137.504 9.18095C137.236 8.86029 137.023 8.47462 136.867 8.02395C136.72 7.57329 136.646 7.06629 136.646 6.50295C136.646 5.94829 136.72 5.44562 136.867 4.99495C137.023 4.54429 137.236 4.15862 137.504 3.83795C137.773 3.51728 138.089 3.27462 138.453 3.10995C138.826 2.93662 139.225 2.84995 139.649 2.84995C140.117 2.84995 140.529 2.94529 140.884 3.13595C141.24 3.32662 141.521 3.59528 141.729 3.94195V0.574951ZM141.794 6.50295C141.794 6.10428 141.747 5.75328 141.651 5.44995C141.556 5.14662 141.426 4.89962 141.261 4.70895C141.105 4.50962 140.915 4.36228 140.689 4.26695C140.473 4.16295 140.239 4.11095 139.987 4.11095C139.441 4.11095 139.017 4.32762 138.713 4.76095C138.41 5.18562 138.258 5.76628 138.258 6.50295C138.258 7.24829 138.41 7.83762 138.713 8.27095C139.017 8.69562 139.441 8.90795 139.987 8.90795C140.239 8.90795 140.473 8.86028 140.689 8.76495C140.915 8.66095 141.105 8.50928 141.261 8.30995C141.426 8.11062 141.556 7.86362 141.651 7.56895C141.747 7.26562 141.794 6.91028 141.794 6.50295Z" fill="#000055"/>
<path d="M130.889 3.98098C131.089 3.61698 131.366 3.33964 131.721 3.14898C132.085 2.94964 132.514 2.84998 133.008 2.84998C133.433 2.84998 133.793 2.91498 134.087 3.04498C134.391 3.17498 134.638 3.36131 134.828 3.60398C135.019 3.84664 135.158 4.13698 135.244 4.47498C135.34 4.81298 135.387 5.18998 135.387 5.60598V9.99998H133.84V5.98298C133.84 5.74898 133.827 5.51931 133.801 5.29398C133.775 5.06864 133.715 4.86931 133.619 4.69598C133.533 4.51398 133.398 4.37098 133.216 4.26698C133.043 4.16298 132.809 4.11098 132.514 4.11098C132.22 4.11098 131.968 4.16731 131.76 4.27998C131.552 4.38398 131.383 4.53131 131.253 4.72198C131.123 4.91264 131.028 5.14231 130.967 5.41098C130.915 5.67964 130.889 5.96998 130.889 6.28198V9.99998H129.342V3.00598H130.889V3.98098Z" fill="#000055"/>
<path d="M123.066 0.574951H124.808L128.344 9.99995H126.537L125.796 7.90695H121.974L121.246 9.99995H119.556L123.066 0.574951ZM122.455 6.52895H125.302L123.872 2.48595L122.455 6.52895Z" fill="#000055"/>
<path d="M114.099 6.71097C113.544 6.76297 113.072 6.82364 112.682 6.89297C112.292 6.96231 111.971 7.04897 111.72 7.15297C111.468 7.25697 111.282 7.38264 111.161 7.52997C111.048 7.66864 110.992 7.83764 110.992 8.03697C110.992 8.34031 111.109 8.57864 111.343 8.75197C111.577 8.92531 111.889 9.01197 112.279 9.01197C112.851 9.01197 113.297 8.85597 113.618 8.54397C113.938 8.22331 114.099 7.69464 114.099 6.95797V6.71097ZM112.63 2.79797C113.063 2.79797 113.462 2.84997 113.826 2.95397C114.198 3.05797 114.519 3.22697 114.788 3.46097C115.056 3.69497 115.26 4.00264 115.399 4.38397C115.546 4.76531 115.615 5.23331 115.607 5.78797C115.607 5.87464 115.602 5.99164 115.594 6.13897C115.594 6.27764 115.594 6.42931 115.594 6.59397C115.594 6.75864 115.589 6.93197 115.581 7.11397C115.581 7.28731 115.581 7.45197 115.581 7.60797C115.581 8.04997 115.598 8.48764 115.633 8.92097C115.667 9.34564 115.719 9.70531 115.789 9.99997H114.372C114.346 9.85264 114.32 9.70964 114.294 9.57097C114.276 9.43231 114.259 9.24164 114.242 8.99897C114.025 9.38897 113.717 9.68364 113.319 9.88297C112.92 10.0736 112.461 10.169 111.941 10.169C111.559 10.169 111.208 10.117 110.888 10.013C110.576 9.91764 110.303 9.77897 110.069 9.59697C109.843 9.41497 109.666 9.19831 109.536 8.94697C109.414 8.68697 109.354 8.39664 109.354 8.07597C109.354 7.64264 109.479 7.28297 109.731 6.99697C109.982 6.71097 110.32 6.47697 110.745 6.29497C111.178 6.11297 111.676 5.97431 112.24 5.87897C112.812 5.78364 113.418 5.70131 114.06 5.63197V5.46297C114.06 5.16831 114.021 4.92564 113.943 4.73497C113.865 4.53564 113.756 4.37964 113.618 4.26697C113.488 4.14564 113.332 4.06331 113.15 4.01997C112.968 3.96797 112.768 3.94197 112.552 3.94197C112.153 3.94197 111.819 4.04597 111.551 4.25397C111.282 4.46197 111.139 4.77831 111.122 5.20297H109.601C109.627 4.84764 109.718 4.52264 109.874 4.22797C110.03 3.93331 110.238 3.68197 110.498 3.47397C110.766 3.25731 111.078 3.09264 111.434 2.97997C111.798 2.85864 112.196 2.79797 112.63 2.79797Z" fill="#000055"/>
<path d="M102.708 8.81698L106.452 4.18898H102.968V3.00598H108.376V4.18898L104.619 8.81698H108.467V9.99998H102.708V8.81698Z" fill="#000055"/>
<path d="M98.2443 0.574951V2.13495H96.6973V0.574951H98.2443ZM98.2443 3.00595V9.99995H96.6973V3.00595H98.2443Z" fill="#000055"/>
<path d="M86.32 9.99998H84.7729V3.00598H86.32V3.98098C86.5193 3.61698 86.7879 3.33964 87.1259 3.14898C87.4726 2.94964 87.88 2.84998 88.3479 2.84998C88.894 2.84998 89.3273 2.95831 89.648 3.17498C89.9773 3.39164 90.2243 3.69498 90.389 4.08498C90.6923 3.64298 91.039 3.32664 91.429 3.13598C91.819 2.94531 92.2306 2.84998 92.664 2.84998C93.08 2.84998 93.431 2.91498 93.717 3.04498C94.0116 3.17498 94.25 3.36131 94.432 3.60398C94.614 3.84664 94.744 4.13698 94.822 4.47498C94.9086 4.81298 94.952 5.18998 94.952 5.60598V9.99998H93.405V5.98298C93.405 5.74898 93.392 5.51931 93.366 5.29398C93.3486 5.06864 93.2966 4.86931 93.21 4.69598C93.132 4.51398 93.0106 4.37098 92.846 4.26698C92.6813 4.16298 92.456 4.11098 92.17 4.11098C91.884 4.11098 91.6413 4.16731 91.442 4.27998C91.2513 4.38398 91.0953 4.53131 90.974 4.72198C90.8526 4.91264 90.766 5.14231 90.714 5.41098C90.662 5.67964 90.636 5.96998 90.636 6.28198V9.99998H89.089V5.98298C89.089 5.74898 89.076 5.51931 89.05 5.29398C89.0326 5.06864 88.9806 4.86931 88.894 4.69598C88.816 4.51398 88.6946 4.37098 88.53 4.26698C88.3653 4.16298 88.14 4.11098 87.854 4.11098C87.568 4.11098 87.3253 4.16731 87.1259 4.27998C86.9353 4.38398 86.7793 4.53131 86.658 4.72198C86.5366 4.91264 86.4499 5.14231 86.3979 5.41098C86.3459 5.67964 86.32 5.96998 86.32 6.28198V9.99998Z" fill="#000055"/>
<path d="M77.6865 8.81698L81.4305 4.18898H77.9465V3.00598H83.3545V4.18898L79.5975 8.81698H83.4455V9.99998H77.6865V8.81698Z" fill="#000055"/>
<path d="M74.801 9.03798C74.6017 9.40198 74.3244 9.68365 73.969 9.88298C73.6224 10.0736 73.2107 10.169 72.734 10.169C72.318 10.169 71.9627 10.104 71.668 9.97398C71.3734 9.84398 71.1307 9.65765 70.94 9.41498C70.7494 9.17232 70.6107 8.88198 70.524 8.54398C70.4374 8.20598 70.394 7.82898 70.394 7.41298V3.00598H71.941V7.03598C71.941 7.26998 71.954 7.49965 71.98 7.72498C72.006 7.95031 72.0624 8.15398 72.149 8.33598C72.2357 8.50932 72.3657 8.64798 72.539 8.75198C72.7124 8.85598 72.942 8.90798 73.228 8.90798C73.514 8.90798 73.7567 8.85598 73.956 8.75198C74.164 8.63932 74.3287 8.48765 74.45 8.29698C74.5714 8.10632 74.658 7.87665 74.71 7.60798C74.7707 7.33932 74.801 7.04898 74.801 6.73698V3.00598H76.348V9.99998H74.801V9.03798Z" fill="#000055"/>
<path d="M65.8554 10.169C65.2834 10.169 64.7764 10.0693 64.3344 9.86998C63.9011 9.67064 63.5371 9.40198 63.2424 9.06398C62.9564 8.72598 62.7354 8.33164 62.5794 7.88098C62.4321 7.43031 62.3584 6.95364 62.3584 6.45098C62.3584 5.92231 62.4407 5.44131 62.6054 5.00798C62.7701 4.56598 62.9997 4.18464 63.2944 3.86398C63.5891 3.54331 63.9444 3.29631 64.3604 3.12297C64.7764 2.94098 65.2401 2.84998 65.7514 2.84998C66.2974 2.84998 66.7827 2.95398 67.2074 3.16198C67.6321 3.36998 67.9874 3.65598 68.2734 4.01998C68.5594 4.38398 68.7717 4.81731 68.9104 5.31998C69.0491 5.81398 69.1011 6.35564 69.0664 6.94498H63.9314C63.9401 7.22231 63.9921 7.48231 64.0874 7.72498C64.1914 7.95898 64.3257 8.16264 64.4904 8.33598C64.6551 8.50931 64.8457 8.64364 65.0624 8.73898C65.2877 8.83431 65.5304 8.88198 65.7904 8.88198C66.6311 8.88198 67.1901 8.55698 67.4674 7.90698H68.9884C68.9104 8.18431 68.7891 8.46164 68.6244 8.73898C68.4597 9.00764 68.2474 9.25031 67.9874 9.46698C67.7361 9.67498 67.4327 9.84398 67.0774 9.97398C66.7221 10.104 66.3147 10.169 65.8554 10.169ZM65.7514 4.05898C65.5347 4.05898 65.3181 4.09364 65.1014 4.16298C64.8934 4.23231 64.7027 4.34064 64.5294 4.48798C64.3647 4.62664 64.2261 4.80864 64.1134 5.03398C64.0007 5.25064 63.9401 5.51064 63.9314 5.81398H67.4934C67.4847 5.54531 67.4327 5.30264 67.3374 5.08598C67.2421 4.86064 67.1164 4.67431 66.9604 4.52698C66.8044 4.37964 66.6224 4.26698 66.4144 4.18898C66.2064 4.10231 65.9854 4.05898 65.7514 4.05898Z" fill="#000055"/>
<path d="M61.8718 4.57892C61.6118 4.55292 61.3648 4.53992 61.1308 4.53992C60.8881 4.53992 60.6715 4.57025 60.4808 4.63092C60.2901 4.68292 60.1298 4.77825 59.9998 4.91692C59.8698 5.04692 59.7701 5.22892 59.7008 5.46292C59.6315 5.69692 59.5968 5.98725 59.5968 6.33392V9.99992H58.0498V3.00592H59.5708V4.25392C59.7615 3.86392 60.0171 3.56059 60.3378 3.34392C60.6671 3.11859 61.0441 3.00159 61.4688 2.99292C61.5295 2.99292 61.5945 2.99725 61.6638 3.00592C61.7418 3.00592 61.8111 3.01025 61.8718 3.01892V4.57892Z" fill="#000055"/>
<path d="M53.0562 0.574951C53.5762 0.574951 54.0746 0.605284 54.5512 0.665951C55.0366 0.726618 55.4612 0.860951 55.8252 1.06895C56.1979 1.27695 56.4969 1.57595 56.7222 1.96595C56.9476 2.35595 57.0602 2.88029 57.0602 3.53895C57.0602 4.13695 56.9562 4.62228 56.7482 4.99495C56.5402 5.36762 56.2586 5.66229 55.9032 5.87895C55.5479 6.09562 55.1276 6.24295 54.6422 6.32095C54.1569 6.39895 53.6369 6.43795 53.0822 6.43795H51.6002V9.99995H49.9492V0.574951H53.0562ZM51.6002 1.90095V5.08595H53.1342C53.4462 5.08595 53.7366 5.06862 54.0052 5.03395C54.2739 4.99929 54.5079 4.92995 54.7072 4.82595C54.9066 4.72195 55.0626 4.57029 55.1752 4.37095C55.2879 4.16295 55.3442 3.88995 55.3442 3.55195C55.3442 3.17062 55.2792 2.87162 55.1492 2.65495C55.0192 2.42962 54.8459 2.26495 54.6292 2.16095C54.4212 2.04828 54.1786 1.97895 53.9012 1.95295C53.6239 1.91828 53.3422 1.90095 53.0562 1.90095H51.6002Z" fill="#000055"/>
<path d="M0.599609 4.81462V37.3124C0.599609 40.3369 3.82691 42.2672 6.49169 40.8366L36.1635 24.9063C38.9478 23.4115 38.9807 19.4302 36.2215 17.8896L6.54965 1.32215C3.8834 -0.16657 0.599609 1.7609 0.599609 4.81462Z" fill="#000055"/>
</svg>
